<svg xmlns="http://www.w3.org/2000/svg" viewBox="0 0 964 949"><title>Logo</title><path d="M829.05,5.24C825.81,23.16,825.89,33,821.69,57,874.06,79.33,916,85.44,954.9,91.44c-32.9,37.44-95.81,31.44-142.18,22.35-9,47.47-13.48,71.91-31.45,130.41,46.37,55.44,83.82,85.39,163.17,139.34-58.4,18-124.28-19.45-191.61-61.44C731.17,374.49,724.39,394,687,452.51c19.47,79.43,31.42,131.85,50.89,193.33,16.45,50.93,52.4,128.84,82.29,191.76-92.75-24-160-209-223-292.17C542.27,603,434.2,684.24,296.27,720.73c-30.29,60.69-44.66,159-50.88,215.76-33-27-52.63-137.6-50.88-187.3C140.58,761.6,0,776.61,0,776.61V949l964-1V5" style="fill:#076ac6"/><path d="M186,352a404.71,404.71,0,0,1-47,85c-38,52.5-67,65.61-96,113-12.67,20.73-28.25,52.81-36.25,98.77-3.62-100.68,19.85-166,42.66-207.58C60.93,420.22,70.77,408.06,82,382c27.68-64.24,26.47-126.28,21-169,4.35,23.57,15.15,62.93,45,101A224.48,224.48,0,0,0,186,352Z" style="fill:#076ac6"/><path d="M372.94,387.93a286.54,286.54,0,0,1-44.45,3.5,281,281,0,0,1-78.24-11.17c10.24,143.07-30.89,247.09-35,363.78a459.2,459.2,0,0,0,21.72,160.21c-3.39-62.93,11.7-119.52,33-174,43.29-111,112.22-213.23,103-342.33" style="fill:#076ac6"/><path d="M664.63,462.93C643.13,398.66,613,342.77,545.89,289.16A283.19,283.19,0,0,1,442.42,367.4C520.37,420,571.48,474.44,609.67,528,685.9,634.84,711.05,738,796.34,815.24,711.28,672.13,697,559.43,664.63,462.93" style="fill:#076ac6"/><path d="M770.07,261.36c-50.3-54.06-90.16-104-160.58-123a280.78,280.78,0,0,1-29.06,98.25c35.32,5,77.64,14.05,115.76,34.69,19.41,10.51,38.56,21.91,57.3,33.27,61.74,37.26,118.74,73.81,163.75,73.55C851,344.52,807.59,301.79,770.07,261.36" style="fill:#076ac6"/><path d="M817,74C745,48,671.67,8.42,589.29,0A280.81,280.81,0,0,1,610.2,87.33a718.34,718.34,0,0,1,102.16-2.27c18.25.41,58.34,8.38,100,14.64,51.49,7.71,105.29,12.82,123.4-2C895.82,98.81,856.62,88.41,817,74" style="fill:#076ac6"/></svg>